<svg width="230" height="290" viewBox="0 0 230 290" fill="none" xmlns="http://www.w3.org/2000/svg">
<path d="M114.153 214.501H17.6531C5.65312 216.101 5.03292 236.514 6.65312 251.5C10.6531 288.5 104.153 282 152.153 282C213.253 282 220.187 264.602 222.704 254.403C225.743 217.765 215.615 214.501 208.653 214.501C189.251 214.501 178.192 238.501 165.153 238.501C148.653 238.501 126.486 215.834 114.153 214.501Z" fill="#ffbc0d"/>
<path d="M140.153 116H174.112C184.637 116 192.512 117.533 197.736 120.598C203.036 123.583 205.687 128.664 205.687 135.843C205.687 146.894 199.44 153.508 186.947 155.686V155.928C202.09 157.945 209.662 164.962 209.662 176.981C209.662 185.773 206.557 191.944 200.349 195.493C194.14 198.961 185.205 200.695 173.545 200.695H140.153V198.396H147.536V118.299H140.153V116ZM169.683 157.864V198.396H175.021C179.185 198.396 182.101 196.864 183.766 193.799C185.432 190.734 186.265 186.217 186.265 180.248V173.835C186.265 168.511 185.243 164.519 183.199 161.857C181.154 159.195 177.52 157.864 172.295 157.864H169.683ZM169.683 118.299V155.565H172.636C176.573 155.565 179.299 154.315 180.813 151.814C182.403 149.233 183.199 145.321 183.199 140.078V134.391C183.199 128.422 182.517 124.268 181.154 121.929C179.791 119.509 177.179 118.299 173.317 118.299H169.683Z" fill="#ffbc0d"/>
<path d="M68.628 175.255L78.0548 140.409L71.2402 117.299H64.7664V115H99.975V117.299H93.274C99.8828 139.649 103.588 152.179 110.197 174.529L123.826 117.299H112.355V115H135.07V117.299H127.574L106.676 200.905H96.5677L79.7584 146.217L64.9935 200.905H55.1124L26.4912 117.299H21.1531V115H58.0654V117.299H50.115L68.628 175.255Z" fill="#ffbc0d"/>
<path fill-rule="evenodd" clip-rule="evenodd" d="M14.6532 101H212.653C218.82 101.333 228.253 95.4 216.653 69C209.487 49.8333 179.253 10.8 115.653 8C56.8532 8 23.8199 48.6667 14.6532 69C-0.546796 93.8 8.31987 100.667 14.6532 101ZM169.153 41.2261C166.327 39.1063 163.153 39.4518 161.653 40.4518C160.153 41.4518 159.442 45.7146 163.153 46.9518C163.613 47.105 164.513 47.5264 165.621 48.0448C167.942 49.1303 171.171 50.6407 173.153 51.0005C175.204 51.3728 178.153 48.5005 176.153 46.0005C175.358 45.0072 173.631 43.9888 171.956 43.001C170.926 42.3934 169.915 41.7975 169.153 41.2261ZM150.653 41.5005C153.911 42.0435 155 42.347 156.653 44.0005C156.706 44.0533 156.857 44.1578 157.067 44.3032C158.125 45.0363 160.683 46.809 159.747 48.2411C159.628 48.4234 159.551 48.5988 159.481 48.7585C159.242 49.2987 159.083 49.6594 157.653 49.5005C156.799 49.4055 156.127 49.3489 155.577 49.3025C153.397 49.1187 153.15 49.0978 151.153 47.5005C149.964 46.5495 148.329 44.8534 148.153 43.5005C147.987 42.2272 149.199 41.258 150.653 41.5005ZM164.055 38.5023C164.53 37.8526 165.055 36.1718 164.555 35.5032C164.335 35.2103 162.431 33.5984 161.199 33.0031C159.619 32.2394 157.761 32.0031 157.199 32.0031C157.092 32.0031 156.996 32.0023 156.909 32.0016C156.177 31.9956 156.063 31.9947 155.554 32.5032C154.985 33.0725 155.055 34.0041 155.555 35.0032C156.459 36.8113 159.005 37.7371 160.344 38.2242C160.661 38.3395 160.91 38.4303 161.055 38.5023C162.055 39.0023 163.579 39.1519 164.055 38.5023Z" fill="#ffbc0d"/>
<path d="M212.653 101L212.707 100.001L212.68 100H212.653V101ZM14.6532 101L14.6006 101.999L14.6269 102H14.6532V101ZM216.653 69L215.717 69.3502L215.726 69.3766L215.738 69.4023L216.653 69ZM115.653 8L115.697 7.00097L115.675 7H115.653V8ZM14.6532 69L15.5058 69.5226L15.5389 69.4686L15.5648 69.411L14.6532 69ZM161.653 40.4518L162.208 41.2839V41.2839L161.653 40.4518ZM169.153 41.2261L169.753 40.4261L169.153 41.2261ZM163.153 46.9518L162.837 47.9005L163.153 46.9518ZM165.621 48.0448L165.198 48.9505L165.621 48.0448ZM173.153 51.0005L172.974 51.9844L173.153 51.0005ZM176.153 46.0005L175.372 46.6252L176.153 46.0005ZM171.956 43.001L171.448 43.8624V43.8625L171.956 43.001ZM156.653 44.0005L155.946 44.7076L156.653 44.0005ZM150.653 41.5005L150.818 40.5141L150.653 41.5005ZM157.067 44.3032L157.636 43.4812L157.067 44.3032ZM159.747 48.2411L160.584 48.7882L160.585 48.7882L159.747 48.2411ZM159.481 48.7585L160.396 49.1619L160.396 49.1619L159.481 48.7585ZM157.653 49.5005L157.763 48.5066L157.653 49.5005ZM155.577 49.3025L155.661 48.3061H155.661L155.577 49.3025ZM151.153 47.5005L150.528 48.2813V48.2813L151.153 47.5005ZM148.153 43.5005L149.145 43.3713V43.3713L148.153 43.5005ZM164.555 35.5032L165.355 34.9043L164.555 35.5032ZM164.055 38.5023L164.861 39.0929L164.861 39.0929L164.055 38.5023ZM161.199 33.0031L161.634 32.1028V32.1028L161.199 33.0031ZM157.199 32.0031V31.0031V32.0031ZM156.909 32.0016L156.917 31.0017L156.909 32.0016ZM155.554 32.5032L154.847 31.7961V31.7961L155.554 32.5032ZM155.555 35.0032L154.66 35.4507L155.555 35.0032ZM160.344 38.2242L160.002 39.164H160.002L160.344 38.2242ZM161.055 38.5023L161.502 37.6078L161.502 37.6078L161.055 38.5023ZM212.653 100H14.6532V102H212.653V100ZM215.738 69.4023C221.511 82.5412 221.92 90.3216 220.373 94.6912C218.873 98.9283 215.447 100.15 212.707 100.001L212.599 101.999C216.026 102.184 220.4 100.605 222.258 95.3588C224.069 90.2451 223.396 81.8589 217.569 68.5977L215.738 69.4023ZM115.609 8.99903C178.773 11.7798 208.677 50.5246 215.717 69.3502L217.59 68.6498C210.296 49.1421 179.734 9.82019 115.697 7.00097L115.609 8.99903ZM15.5648 69.411C24.6218 49.321 57.3589 9 115.653 9V7C56.3475 7 23.0179 48.0124 13.7416 68.589L15.5648 69.411ZM14.7058 100.001C11.8609 99.8517 8.53682 98.2644 7.55316 93.9526C6.5359 89.4935 7.93785 81.8703 15.5058 69.5226L13.8006 68.4774C6.16855 80.9297 4.40384 89.1399 5.60325 94.3974C6.83626 99.8023 11.1122 101.815 14.6006 101.999L14.7058 100.001ZM162.208 41.2839C163.338 40.5302 166.049 40.1484 168.553 42.0261L169.753 40.4261C166.604 38.0642 162.968 38.3735 161.098 39.6198L162.208 41.2839ZM163.469 46.0032C162.039 45.5264 161.519 44.5294 161.446 43.5398C161.408 43.0211 161.497 42.5054 161.664 42.0807C161.836 41.6402 162.057 41.3843 162.208 41.2839L161.098 39.6198C160.499 40.0193 160.068 40.6713 159.802 41.35C159.529 42.0445 159.391 42.8593 159.451 43.686C159.576 45.3871 160.555 47.1401 162.837 47.9005L163.469 46.0032ZM166.045 47.139C164.973 46.6374 164 46.1799 163.469 46.0032L162.837 47.9005C163.225 48.03 164.054 48.4155 165.198 48.9505L166.045 47.139ZM173.332 50.0166C172.454 49.8572 171.235 49.4265 169.897 48.8712C168.576 48.3228 167.209 47.6833 166.045 47.139L165.198 48.9505C166.355 49.4918 167.762 50.1502 169.131 50.7184C170.483 51.2796 171.87 51.784 172.974 51.9844L173.332 50.0166ZM175.372 46.6252C175.729 47.0718 175.833 47.485 175.818 47.8445C175.801 48.2204 175.648 48.6121 175.374 48.9747C174.783 49.7573 173.877 50.1156 173.332 50.0166L172.974 51.9844C174.48 52.2577 176.074 51.366 176.97 50.1805C177.44 49.5591 177.778 48.7872 177.816 47.933C177.854 47.0625 177.577 46.1792 176.934 45.3758L175.372 46.6252ZM171.448 43.8625C172.292 44.3601 173.114 44.8451 173.823 45.3263C174.546 45.8162 175.073 46.2506 175.372 46.6252L176.934 45.3758C176.439 44.7571 175.705 44.1856 174.946 43.6711C174.174 43.1477 173.295 42.6297 172.464 42.1396L171.448 43.8625ZM168.553 42.0261C169.369 42.6378 170.433 43.264 171.448 43.8624L172.464 42.1396C171.418 41.5229 170.461 40.9571 169.753 40.4261L168.553 42.0261ZM157.36 43.2934C156.467 42.3999 155.67 41.8184 154.623 41.4041C153.622 41.0085 152.432 40.7831 150.818 40.5141L150.489 42.4869C152.133 42.7609 153.115 42.9587 153.887 43.264C154.612 43.5505 155.186 43.9475 155.946 44.7076L157.36 43.2934ZM157.636 43.4812C157.528 43.4065 157.447 43.3503 157.386 43.3062C157.356 43.2845 157.338 43.2707 157.328 43.2629C157.313 43.251 157.331 43.2638 157.36 43.2934L155.946 44.7076C156.039 44.8002 156.156 44.8849 156.216 44.9281C156.296 44.9859 156.395 45.0546 156.497 45.1252L157.636 43.4812ZM160.585 48.7882C161.014 48.1317 161.024 47.4261 160.822 46.812C160.633 46.2392 160.262 45.7374 159.892 45.334C159.149 44.5246 158.151 43.8379 157.636 43.4812L156.497 45.1252C157.041 45.5017 157.851 46.0679 158.418 46.6861C158.703 46.9966 158.861 47.2522 158.922 47.4375C158.97 47.5814 158.949 47.6344 158.91 47.694L160.585 48.7882ZM160.396 49.1619C160.468 48.9985 160.516 48.8934 160.584 48.7882L158.91 47.694C158.741 47.9534 158.634 48.1991 158.566 48.3551L160.396 49.1619ZM157.543 50.4943C158.289 50.5773 158.96 50.5652 159.499 50.266C160.085 49.9406 160.298 49.3838 160.396 49.1619L158.566 48.3551C158.425 48.6733 158.439 48.567 158.529 48.5173C158.56 48.4998 158.544 48.5202 158.418 48.5316C158.289 48.5433 158.084 48.5422 157.763 48.5066L157.543 50.4943ZM155.493 50.299C156.042 50.3452 156.703 50.401 157.543 50.4943L157.763 48.5066C156.895 48.4101 156.212 48.3525 155.661 48.3061L155.493 50.299ZM150.528 48.2813C151.51 49.067 152.185 49.5713 152.933 49.8631C153.68 50.1549 154.45 50.211 155.493 50.299L155.661 48.3061C154.524 48.2101 154.08 48.1639 153.66 48C153.24 47.8361 152.792 47.5313 151.778 46.7196L150.528 48.2813ZM147.161 43.6296C147.287 44.5931 147.891 45.5367 148.498 46.2824C149.13 47.0599 149.89 47.7707 150.528 48.2813L151.778 46.7196C151.227 46.2793 150.575 45.6666 150.049 45.02C149.497 44.3417 149.195 43.7607 149.145 43.3713L147.161 43.6296ZM150.818 40.5141C149.834 40.3502 148.875 40.5878 148.171 41.1512C147.456 41.7231 147.03 42.6192 147.161 43.6296L149.145 43.3713C149.11 43.1085 149.207 42.8834 149.42 42.713C149.644 42.534 150.018 42.4083 150.489 42.4869L150.818 40.5141ZM163.754 36.1021C163.713 36.0483 163.747 36.0554 163.756 36.2148C163.763 36.3613 163.745 36.5611 163.693 36.796C163.586 37.2853 163.382 37.7283 163.248 37.9116L164.861 39.0929C165.203 38.6266 165.498 37.9044 165.647 37.2237C165.724 36.8736 165.773 36.4872 165.753 36.1102C165.734 35.7461 165.646 35.2923 165.355 34.9043L163.754 36.1021ZM160.764 33.9035C161.279 34.1526 161.994 34.6493 162.641 35.1544C162.955 35.4005 163.237 35.6354 163.45 35.8228C163.697 36.0406 163.772 36.1272 163.754 36.1021L165.355 34.9043C165.227 34.7327 164.983 34.508 164.772 34.3227C164.528 34.1068 164.215 33.8466 163.872 33.5787C163.203 33.0558 162.35 32.4489 161.634 32.1028L160.764 33.9035ZM157.199 33.0031C157.635 33.0031 159.34 33.2152 160.764 33.9035L161.634 32.1028C159.898 31.2637 157.887 31.0031 157.199 31.0031V33.0031ZM156.9 33.0016C156.988 33.0023 157.088 33.0031 157.199 33.0031V31.0031C157.097 31.0031 157.005 31.0024 156.917 31.0017L156.9 33.0016ZM156.262 33.2103C156.517 32.9551 156.529 32.9862 156.471 33.006C156.446 33.0146 156.446 33.0084 156.518 33.0043C156.599 32.9996 156.706 33 156.9 33.0016L156.917 31.0017C156.619 30.9992 156.207 30.9829 155.825 31.113C155.4 31.2579 155.101 31.5427 154.847 31.7961L156.262 33.2103ZM156.449 34.5556C156.241 34.1396 156.158 33.8055 156.153 33.5718C156.149 33.358 156.206 33.2655 156.262 33.2103L154.847 31.7961C153.791 32.8527 154.117 34.3644 154.66 35.4507L156.449 34.5556ZM160.686 37.2844C160.011 37.0389 159.114 36.7107 158.279 36.2386C157.43 35.7586 156.77 35.198 156.449 34.5556L154.66 35.4507C155.244 36.6165 156.31 37.4229 157.294 37.9796C158.293 38.5442 159.338 38.9225 160.002 39.164L160.686 37.2844ZM161.502 37.6078C161.293 37.5032 160.972 37.3886 160.686 37.2844L160.002 39.164C160.35 39.2904 160.528 39.3573 160.607 39.3967L161.502 37.6078ZM163.248 37.9116C163.294 37.8487 163.322 37.863 163.231 37.8911C163.141 37.9188 162.992 37.9408 162.784 37.9339C162.364 37.92 161.874 37.7942 161.502 37.6078L160.607 39.3967C161.235 39.7103 162.007 39.9093 162.718 39.9328C163.349 39.9537 164.312 39.8437 164.861 39.0929L163.248 37.9116Z" fill="#ffbc0d"/>
</svg>
